<svg xmlns="http://www.w3.org/2000/svg" version="1.1" xmlns:xlink="http://www.w3.org/1999/xlink" xmlns:svgjs="http://svgjs.dev/svgjs" width="1000" height="1000" viewBox="0 0 1000 1000"><rect width="1000" height="1000" fill="#ffffff"></rect><g transform="matrix(0.7,0,0,0.7,149.65000000000003,149.65068814563324)"><svg viewBox="0 0 280 280" data-background-color="#ffffff" preserveAspectRatio="xMidYMid meet" height="1000" width="1000" xmlns="http://www.w3.org/2000/svg" xmlns:xlink="http://www.w3.org/1999/xlink"><defs></defs><g id="tight-bounds" transform="matrix(1,0,0,1,0.13999999999998636,0.13972474174670424)"><svg viewBox="0 0 279.72 279.72" height="279.72" width="279.72"><g><svg viewBox="0 0 279.72 279.72" height="279.72" width="279.72"><g><svg viewBox="0 0 279.72 279.72" height="279.72" width="279.72"><g><svg viewBox="0 0 279.72 279.72" height="279.72" width="279.72"><g><svg viewBox="0 0 279.72 279.72" height="279.72" width="279.72"><g transform="matrix(1,0,0,1,96.48379657089863,73.92936372216631)"><svg viewBox="0 0 86.75240685820276 131.8612725556674" height="131.8612725556674" width="86.75240685820276"><g><svg version="1.0" xmlns="http://www.w3.org/2000/svg" xmlns:xlink="http://www.w3.org/1999/xlink" x="0" y="0" viewBox="0 0 65.79100036621094 100.0005111694336" enable-background="new 0 0 65.79 100" xml:space="preserve" width="86.75240685820276" height="131.8612725556674" class="icon-o-0" data-fill-palette-color="accent" id="o-0"><path d="M26.083 79.406c-2.386-2.373-5.516-3.536-8.635-3.5l-0.012-0.005L5.513 75.874l0.026 11.924 0.005 0.012c-0.036 3.119 1.127 6.25 3.499 8.636 0.008 0.008 0.015 0.017 0.023 0.025 4.706 4.706 12.336 4.706 17.042 0 2.354-2.354 3.53-5.438 3.53-8.521s-1.177-6.168-3.53-8.521C26.101 79.42 26.092 79.413 26.083 79.406z" fill="#ff851b" data-fill-palette-color="accent"></path><path d="M65.79 24.102c0-6.656-5.396-12.051-12.051-12.051C53.739 5.395 48.344 0 41.689 0c-3.475 0-6.596 1.478-8.794 3.83C30.695 1.478 27.575 0 24.102 0c-6.655 0-12.051 5.395-12.051 12.051C5.396 12.051 0 17.446 0 24.102c0 3.473 1.478 6.594 3.83 8.793C1.478 35.094 0 38.215 0 41.689c0 6.655 5.396 12.05 12.051 12.05 0 6.655 5.396 12.051 12.051 12.051 2.001 0 3.878-0.504 5.537-1.369v23.528V100h6.514V87.949 64.421c1.658 0.865 3.535 1.369 5.537 1.369 6.654 0 12.05-5.396 12.05-12.051 6.655 0 12.051-5.395 12.051-12.05 0-3.474-1.478-6.595-3.829-8.794C64.312 30.696 65.79 27.575 65.79 24.102zM32.896 53.739c-11.513 0-20.845-9.333-20.845-20.844s9.332-20.844 20.845-20.844c11.511 0 20.844 9.333 20.844 20.844S44.406 53.739 32.896 53.739z" fill="#ff851b" data-fill-palette-color="accent"></path><path d="M56.724 96.471c0.009-0.009 0.015-0.018 0.023-0.025 2.372-2.386 3.534-5.517 3.5-8.636l0.004-0.012 0.026-11.924-11.924 0.027-0.011 0.005c-3.119-0.036-6.25 1.127-8.636 3.5-0.009 0.007-0.018 0.014-0.025 0.021-2.354 2.354-3.529 5.438-3.529 8.521s1.176 6.168 3.529 8.521C44.388 101.177 52.018 101.177 56.724 96.471z" fill="#ff851b" data-fill-palette-color="accent"></path></svg></g></svg></g><path d="M14.669 81.927l9.938 21.956-4.132 1.509-8.228-17.822-0.041-0.059-1.208 2.496-3.147-1.213 4.131-10.715 3.146 1.213zM32.436 102.603l-4.102 10.641-3.128-1.206 0.526-2.973-18.684-7.203-1.606 2.557-3.147-1.213 4.102-10.641 3.147 1.213-0.483 2.861 18.684 7.203 1.563-2.445zM38.379 87.187l-4.267 11.069-3.128-1.206 0.723-2.513 0.007-0.018-11.675 3.102-2.122-4.786 15.901-4.467 1.433-2.387zM71.733 50.261l-7.814 5.417-1.91-2.755 1.475-1.374-6.536-24.995 4.707-3.263 21.073 14.916 1.805-0.899 1.91 2.755-7.814 5.417-1.91-2.755 1.392-1.39-3.192-2.449-8.06 5.588 1.174 3.848 1.79-0.816zM62.841 30.675l2.753 9.662 5.895-4.087-8.133-6.005-0.698-0.535-0.091 0.063zM137.184 28.024l-11.553 0.078-0.023-3.352 2.959-0.599-0.135-20.024-2.968-0.559-0.023-3.372 2.964-0.02 5.677-0.038 12.283 19.273 0.12-0.021-0.105-15.385-3.575-0.554-0.023-3.373 8.57-0.058 2.993-0.02 0.023 3.372-2.989 0.599 0.163 23.955-5.408 0.037-12.552-19.082-0.109 0.021 0.103 15.215 3.586 0.554zM203.975 47.978v0c-1.562-1.038-2.796-2.277-3.7-3.716-0.895-1.441-1.457-3-1.684-4.677-0.233-1.68-0.123-3.403 0.331-5.169 0.451-1.761 1.241-3.492 2.372-5.193v0l0.237-0.357c1.123-1.69 2.41-3.087 3.862-4.191 1.448-1.098 2.991-1.87 4.628-2.315 1.632-0.449 3.286-0.54 4.962-0.274 1.681 0.27 3.303 0.924 4.865 1.963v0c1.573 1.045 2.816 2.294 3.728 3.746 0.906 1.449 1.474 3.016 1.704 4.701 0.23 1.686 0.125 3.413-0.315 5.181-0.449 1.77-1.235 3.5-2.358 5.19v0l-0.237 0.357c-1.13 1.701-2.422 3.099-3.876 4.193-1.463 1.096-3.014 1.863-4.653 2.299-1.639 0.436-3.3 0.519-4.981 0.249-1.683-0.28-3.311-0.942-4.885-1.987zM206.383 44.354v0c1.319 0.876 2.642 1.264 3.97 1.164 1.323-0.104 2.612-0.62 3.868-1.55 1.257-0.93 2.424-2.207 3.503-3.83v0l0.26-0.391c1.067-1.607 1.782-3.169 2.142-4.685 0.361-1.517 0.33-2.907-0.093-4.17-0.428-1.267-1.296-2.334-2.603-3.203v0c-1.296-0.861-2.601-1.241-3.915-1.14-1.313 0.102-2.586 0.618-3.819 1.548-1.238 0.926-2.398 2.204-3.48 3.833v0l-0.26 0.39c-1.078 1.623-1.808 3.191-2.189 4.703-0.387 1.508-0.372 2.891 0.045 4.151 0.417 1.259 1.274 2.32 2.571 3.18zM245.036 97.637l-4.355-10.702 3.105-1.263 1.653 2.526 18.548-7.548-0.581-2.963 3.123-1.271 1.117 2.745 2.14 5.258-13.347 18.552 0.063 0.104 14.251-5.8-0.811-3.526 3.124-1.272 3.23 7.939 1.129 2.772-3.124 1.271-1.664-2.554-22.189 9.03-2.038-5.009 13.07-18.73-0.06-0.094-14.093 5.735 0.814 3.536zM12.054 191.193l-3.499-11.179 3.247-1.016 1.462 2.699 19.386-6.069-0.339-3.051 3.266-1.023 3.5 11.179-3.266 1.022-1.465-2.709-19.386 6.069 0.341 3.061zM52.642 247.441l-9.078-7.434 2.156-2.632 2.704 1.454 12.87-15.717-1.958-2.364 2.168-2.648 2.331 1.909 4.454 3.648-2.905 23.012 0.105 0.061 9.893-12.081-2.429-2.75 2.168-2.648 6.723 5.506 2.355 1.928-2.168 2.648-2.728-1.473-15.399 18.804-4.238-3.47 2.571-23.029-0.105-0.06-9.779 11.941 2.444 2.763zM133.94 279.7v0c-1.9-0.099-3.615-0.544-5.146-1.337-1.531-0.792-2.831-1.862-3.9-3.209-1.062-1.347-1.854-2.91-2.374-4.69-0.514-1.772-0.717-3.694-0.61-5.766v0l0.022-0.418c0.107-2.059 0.508-3.947 1.203-5.663 0.702-1.709 1.647-3.181 2.837-4.418 1.197-1.237 2.597-2.17 4.202-2.799 1.605-0.629 3.357-0.895 5.257-0.796v0c1.92 0.1 3.652 0.546 5.195 1.339 1.537 0.793 2.844 1.866 3.919 3.22 1.069 1.354 1.867 2.918 2.394 4.691 0.527 1.779 0.737 3.698 0.63 5.757v0l-0.021 0.418c-0.108 2.072-0.516 3.963-1.224 5.672-0.708 1.715-1.664 3.187-2.867 4.417-1.209 1.229-2.616 2.159-4.221 2.788-1.611 0.629-3.377 0.894-5.296 0.794zM134.169 275.286v0c1.608 0.083 2.964-0.259 4.069-1.028 1.106-0.775 1.967-1.893 2.582-3.353 0.609-1.46 0.965-3.184 1.068-5.169v0l0.024-0.459c0.102-1.96-0.078-3.694-0.539-5.203-0.468-1.51-1.215-2.707-2.241-3.593-1.026-0.886-2.337-1.37-3.931-1.453v0c-1.574-0.082-2.908 0.262-4 1.031-1.092 0.769-1.939 1.877-2.541 3.325-0.601 1.447-0.954 3.164-1.056 5.15v0l-0.024 0.458c-0.103 1.986 0.069 3.737 0.516 5.253 0.447 1.515 1.178 2.715 2.191 3.6 1.007 0.878 2.301 1.358 3.882 1.441zM215.283 256.694v0c-1.875 1.241-3.737 2.006-5.587 2.297-1.85 0.291-3.578 0.083-5.186-0.624-1.603-0.71-2.987-1.947-4.155-3.711v0l-8.154-12.323-2.838 1.172-1.888-2.854 9.776-6.47 1.889 2.854-2.205 2.165 8.154 12.323c0.686 1.037 1.45 1.776 2.292 2.216 0.836 0.444 1.715 0.604 2.639 0.479 0.928-0.128 1.881-0.515 2.857-1.16v0c0.993-0.657 1.732-1.39 2.218-2.198 0.481-0.805 0.68-1.678 0.599-2.622-0.076-0.947-0.457-1.939-1.144-2.975v0l-8.154-12.323-2.838 1.172-1.888-2.854 9.776-6.47 1.889 2.854-2.205 2.165 8.154 12.323c1.167 1.764 1.764 3.527 1.789 5.288 0.02 1.766-0.467 3.44-1.462 5.024-0.994 1.583-2.437 3.001-4.328 4.252zM270.64 181.517l-8.105 20.891-3.172-1.23 0.541-3.022-18.939-7.348-1.638 2.596-3.191-1.238 7.951-20.492 7.125 2.765-1.577 4.065-3.132-0.948-3.14 8.093 6.632 2.573 3.468-8.939 4.084 1.584-3.468 8.939 7.534 2.924 3.31-8.53-3.063-1.456 1.562-4.028zM3.345 143.176c0-5.974 4.843-10.817 10.817-10.817 5.974 0 10.817 4.843 10.817 10.817 0 5.974-4.843 10.817-10.817 10.817-5.974 0-10.817-4.843-10.817-10.817zM254.528 143.176c0-5.974 4.843-10.817 10.817-10.817 5.974 0 10.817 4.843 10.816 10.817 0 5.974-4.843 10.817-10.816 10.817-5.974 0-10.817-4.843-10.817-10.817z" fill="#2b2b2b" data-fill-palette-color="primary"></path></svg></g></svg></g></svg></g></svg></g></svg><rect width="279.72" height="279.72" fill="none" stroke="none" visibility="hidden"></rect></g></svg></g></svg>